<?xml version="1.0" encoding="utf-8"?>
<!-- Generator: Adobe Illustrator 23.0.3, SVG Export Plug-In . SVG Version: 6.00 Build 0)  -->
<svg version="1.1" id="Layer_1" xmlns="http://www.w3.org/2000/svg" xmlns:xlink="http://www.w3.org/1999/xlink" x="0px" y="0px"
	 viewBox="0 0 164 221" enable-background="new 0 0 164 221" xml:space="preserve">
<g>
	<path fill="#B6B076" d="M121.1,48.1c10.1,2.8,21.4,7.2,33.2,14.3c0.7-5,1.1-10,1.1-14.8C138.7,44.8,125.2,47.2,121.1,48.1z"/>
	<path fill="#B6B076" d="M118.5,123.3c-1.3,4.1-4.1,7.1-7.5,9.3c1.5,0.2,3.7,0.4,6.1,0.5c0.3-0.3,0.7-0.3,1,0c0,0,0,0,0,0
		c2.7,0.1,5.4,0,7.4-0.4c-0.4-5.4-1-9.6-1.2-10.8c-1.8,0.4-3.7,0.8-5.7,1C118.5,123,118.5,123.1,118.5,123.3z"/>
	<path fill="#B6B076" d="M131.8,93.2c0.1,0.2,0.2,0.4,0.2,0.6c0,0.1-0.5,2.7-2.2,6c2.6-0.1,9.4-1.3,17.9-8.5
		c0.1-0.1,0.3-0.2,0.5-0.2c0.4-1.5,0.7-3.1,1.1-4.8c0.3-1.3,0.7-2.7,1-4.1C145.5,86.3,137.6,90.4,131.8,93.2z"/>
	<path fill="#B6B076" d="M129,112.5c-7.6,0-14.3-0.8-14.7-0.8c-0.2,0-0.4-0.1-0.5-0.3c-1.7,0.3-3.6,0.5-5.7,0.5
		c-1.4,0-2.8-0.1-4.4-0.2c-4.8-0.5-8.8-1.5-12.1-2.8c-0.1,0.1-0.2,0.1-0.3,0.1c-4,1.1-14.3,4.1-17.5,5c3.3,3.4,9,5.6,19,6.8
		c6.9,0.8,12.4,1.2,17.3,1.2c0,0,0,0,0,0c13.4,0,22.7-3.1,28.9-10C135.8,112.3,132.3,112.5,129,112.5z"/>
	<path fill="#D6D1A2" d="M116.1,149.3c0.1,0.3,0,0.5-0.2,0.7c-0.1,0.1-8.8,9.2-22,15.8c6.5-0.9,19.2-3.7,29.7-12.1
		c0.3-0.3,0.8-0.2,1.1,0.1c0,0.1,0.1,0.1,0.1,0.2c0.6-3.2,0.9-6.9,1-10.5C122.8,145.8,119.5,147.7,116.1,149.3z"/>
	<path fill="#B6B076" d="M43.7,185c2.1,2.9,3.8,4.3,5.3,4.5c0,0,0.1,0,0.1,0c1.1,0,4.6-1.1,9.1-2.8C53.7,186,46.7,185.3,43.7,185z"
		/>
	<path fill="#D6D1A2" d="M40.7,158.8c-1.4,0.3-2.6,1.1-3.4,2.4c-1.6,2.6-1.7,6.6-0.4,10.8C37.4,167.2,39.6,161.3,40.7,158.8z"/>
	<path fill="#D6D1A2" d="M109.3,173.3c3.5-0.2,9.9-0.9,14.9-3.5c-0.4-2.9-0.8-5.4-1.1-7.1C120.2,167.1,115.3,170.9,109.3,173.3z"/>
	<path fill="#B6B076" d="M123.7,158.2c0.4-1.1,0.7-2.2,1-3.5c0,0,0,0.1-0.1,0.1c-14.5,11.7-33.2,12.8-34.7,12.9
		c-2.4,1-4.9,1.9-7.5,2.7c0.4,0.2,0.7,0.4,1.1,0.6c7.4,3.9,16.6,4.2,25.1,0.9C116,169.1,121.6,164,123.7,158.2z"/>
	<path fill="#B6B076" d="M38.3,175.6c0.8-2.2,2.5-5.8,4.1-8.8c-0.1-0.3,0.1-0.6,0.4-0.8c1.3-2.4,2.4-4.4,2.8-5.1
		c-0.8-1.2-1.8-2-3.3-2.2C41.4,161,37.6,170.5,38.3,175.6z"/>
	<path fill="#D6D1A2" d="M42.9,169.3c-1.8,3.5-3.3,6.9-3.5,8.1c0,0.1,0,0.2-0.1,0.3c1.2,2.3,2.3,4.2,3.3,5.8c0.6,0,2.2,0.2,4.2,0.4
		C45.2,180.6,43.6,173.1,42.9,169.3z"/>
	<path fill="#B6B076" d="M60.7,167.9c-2.4,0.7-4.7,1.3-6.4,1.7c3.6,5.3,7.5,10.8,9.6,13C62.3,175.9,61,169.3,60.7,167.9z"/>
	<path fill="#B6B076" d="M77.3,177.8c-3-3.5-5.9-11.6-6.4-13c-1.5,0.5-3.4,1.1-5.4,1.7c1.6,2.3,6.8,9.6,10.4,11.7
		c0.1,0.1,0.2,0.2,0.3,0.4c0.4-0.2,0.9-0.5,1.3-0.7C77.3,177.8,77.3,177.8,77.3,177.8z"/>
	<path fill="#B6B076" d="M119.5,173.2c-5.4,1.5-10.7,1.6-12.4,1.6c-0.3,0-0.5,0-0.5,0c-0.3,0-0.5-0.2-0.7-0.4
		c-0.8,0.2-1.6,0.4-2.4,0.6c1,2.9,2.3,6.3,3.4,9.5C111.4,181.1,117.2,175.7,119.5,173.2z"/>
	<path fill="#B6B076" d="M44,167.1c0.4,2.5,2.5,13.8,4.6,16.7c0.1,0.1,0.1,0.2,0.1,0.3c2,0.2,4.3,0.5,6.5,0.7
		c-2-4-3.9-12.6-4.4-14.8c-1.5-0.4-2.3-2.4-3.1-4.7c-0.4-0.9-0.7-1.9-1.1-2.8C45.8,163.7,44.9,165.3,44,167.1z"/>
	<path fill="#B6B076" d="M79.4,170.1c0,2,0.3,4.6,1.2,5.2c0.1,0.1,0.2,0.2,0.3,0.3c1.2-0.9,2.3-1.7,3-2.6c0,0,0.1-0.1,0.1-0.1
		c-0.4-0.2-0.8-0.4-1.2-0.6C81.5,171.7,80.4,171,79.4,170.1z"/>
	<path fill="#B6B076" d="M105.7,202.4c-1.7,1.9-2.9,4-2,6.1c0.6,1.4,1.5,2.4,2.7,2.9c2.3,0.9,5.6,0.2,8.6-0.8
		C108.6,208.9,106.4,204.5,105.7,202.4z"/>
	<path fill="#D6D1A2" d="M122.6,206c-8,0-13.8-4.9-14.8-5.8c-0.3,0.3-0.7,0.6-1,0.9c0.2,0.9,1.6,6.9,9.7,8.3c0.2,0,0.4,0.2,0.5,0.4
		c0.5-0.2,1-0.4,1.4-0.6c2.5-1.1,4.3-2.1,5.5-3.2C123.6,206,123.1,206,122.6,206z"/>
	<path fill="#B6B076" d="M115.6,199.5c-3.1,0-5.3-0.6-6-0.8c-0.2,0.2-0.4,0.3-0.5,0.5c1.3,1.1,7.7,6.3,16.1,5.1c0.2,0,0.3,0,0.5,0.1
		c1-1.2,1.5-2.5,1.8-4c0.1-0.6,0.1-2.1,0-4C123,198.8,118.8,199.5,115.6,199.5z"/>
	<path fill="#D6D1A2" d="M111.4,196.6c-0.1,0.3-0.3,0.6-0.6,0.9c2.5,0.5,9.2,1.5,16.1-2.6c0.1-0.1,0.2-0.1,0.3-0.1
		c-0.2-2.3-0.5-5.1-0.8-8C124.5,188.8,119.7,193.1,111.4,196.6z"/>
	<path fill="#B6B076" d="M126.2,184.8c-0.1-0.8-0.2-1.6-0.3-2.4c-5.3,6.3-15,7.6-16.8,7.8c0.8,2.2,1.5,4,1.9,4.9
		C121.1,190.8,126,185,126.2,184.8z"/>
	<path fill="#D6D1A2" d="M107.6,186c0.3,1,0.7,1.9,1,2.7c0,0,0.1,0,0.1,0c0.1,0,11.6-1.1,16.7-8.2c0.1-0.1,0.2-0.2,0.2-0.2
		c-0.4-3.1-0.8-6.2-1.2-9c-0.8,0.4-1.6,0.8-2.5,1.1C121.3,174.3,111.7,182.8,107.6,186z"/>
	<path fill="#D6D1A2" d="M73.6,150.8c-0.1,0-0.1,0-0.2,0c-0.1,1.5,0,3.1,0.1,4.7c3.7,0.2,33.3,1.2,52-13.6c0.1-0.1,0.2-0.1,0.3-0.1
		c0-2.6-0.1-5.1-0.3-7.4c-1.6,0.3-3.6,0.4-5.6,0.4c-0.8,0-1.6,0-2.3,0c-15.7,15.3-37.8,16.2-42.9,16.2
		C74,150.8,73.6,150.8,73.6,150.8z"/>
	<path fill="#D6D1A2" d="M90,138.9c-1.1,0.1-2.5,0.3-4.1,0.5c2.1,1.3,7.9,4.4,15.8,4.1c4.7-2.1,9.5-5,13.8-9c-3.3-0.2-6-0.5-6.7-0.6
		C101.1,138,91.6,138.8,90,138.9z"/>
	<path fill="#E8DF9F" d="M108.8,105.8c-1.8-0.5-7.1-0.2-7.8,0c-0.3,0.2-1.2,2.1-1.9,3.7c1.4,0.3,3,0.5,4.6,0.7
		c3.1,0.3,5.8,0.3,8.2,0c-0.1-0.1-0.2-0.2-0.2-0.3C111.2,108.4,109.9,106.1,108.8,105.8z"/>
	<path fill="#B6B076" d="M77.3,157c-1.7,0-2.9,0-3.6-0.1c0.7,4.6,2.7,9.2,7.2,12.6c0.1-0.1,0.2-0.3,0.4-0.3
		c15.7-4.4,27.8-14.7,32-18.6C99.5,156.2,84.5,157,77.3,157z"/>
	<path fill="#B6B076" d="M144.4,19.8c-22.8-4-41.1,4.6-44.6,6.4c5.3,1.3,11.2,3.3,17.3,6.4c0,0,0,0,0.1,0.1
		c11.7-1.9,24.2-2.5,35.9-0.3c-1.2-3.5-2.8-6.8-5.2-9.8c-0.9-1.1-1.8-2.1-2.9-3.1C144.9,19.7,144.6,19.8,144.4,19.8z"/>
	<path fill="#D6D1A2" d="M117.4,110.4c5,0.4,15.4,1.1,23-0.3c3.3-4.3,5.7-9.9,7.3-16.9c-9,7.3-15.9,8.1-18.5,8.1c-0.1,0-0.1,0-0.2,0
		C126.8,104.7,123.2,108.4,117.4,110.4z"/>
	<path fill="#B6B076" d="M153.9,63.9c-0.7-0.4-1.4-0.8-2.1-1.2c-0.5,0.7-2.1,2.6-4.5,5.1c0,0.1,0.1,0.3,0,0.4
		c0,0.2-3.3,13.4-15.1,23.1c6.3-3.1,14.6-7.5,18.6-11.7c0,0,0,0,0.1,0c1.2-5,2.3-10.3,3.1-15.7C154,63.9,153.9,63.9,153.9,63.9z"/>
	<path fill="#801E0D" d="M122.8,97.3c0,0.9,0.2,5.3-1.7,6.5c-1.6,1.1-2.5,1.7-5.4,2c-0.1,0-0.2,0-0.3,0c-3,0-4.8-4.5-5-5
		c0,0,0-0.1,0-0.1c-1.4,0.1-2.8,0.2-4.2,0.2c-2.2,0-4.4-0.2-6.6-0.5c0,0.1,0,0.1,0,0.2c-0.2,0.4-1.8,3.5-4.3,3.8
		c-0.4,0-0.8,0.1-1.2,0.1c-2,0-4.2-0.5-6.1-1.5c-2.6-1.3-1.5-5.5-1.4-5.6c0-0.1,0.1-0.1,0.1-0.2c-3.4-1.2-6.4-2.5-9.1-3.7
		c0.7,2.4,4.2,11.9,20.1,15.6c0,0,0-0.1,0-0.1c1.1-2.8,2.1-4.4,2.8-4.7c0.9-0.3,6.6-0.6,8.6,0c2.1,0.6,3.8,4.5,3.9,4.9
		c0.1,0.2,0,0.5-0.1,0.7c14.1-2.3,17-14.2,17.4-16.2c-3.4,1.6-5.8,2.6-6.1,2.7c0,0,0,0,0,0C123.9,96.8,123.3,97,122.8,97.3
		C122.8,97.3,122.8,97.3,122.8,97.3z"/>
	<path fill="#D6D1A2" d="M52.7,169.9c-0.2,0-0.3,0-0.4,0.1c0.6,2.8,2.8,12.2,4.7,15c1.2,0.2,2.3,0.3,3.3,0.5c0.2,0,0.3,0.1,0.4,0.3
		c1-0.4,2-0.8,3.1-1.3C61.2,182.3,56,174.8,52.7,169.9z"/>
	<path fill="#D6D1A2" d="M155.3,46c-0.1-4.2-0.7-8.2-1.8-12c-26.2-5.2-56.4,4-73.4,10.6c7.2-0.9,21.2-1.6,38.8,2.9
		c0.1-0.3,0.2-0.5,0.5-0.6C119.6,46.9,135.2,42.7,155.3,46z"/>
	<path fill="#D6D1A2" d="M98,25.9c0-0.2,0.1-0.4,0.4-0.6c0.2-0.1,19.7-11.1,45-7.2c-7.4-6-18.4-9-32.7-9c-1.5,0-3.2,0-4.8,0.1
		c-12.1,0.5-21.6,4.6-28,12.2c-0.8,1-1.6,2-2.3,3.1C78.4,24.2,86.9,23.4,98,25.9z"/>
	<path fill="#D6D1A2" d="M75.1,47c-0.2,0.1-0.4,0-0.6-0.1c-3.6,1.5-6.1,2.7-7.2,3.2c-0.5,5.1-0.6,10.6-0.3,16.7
		c3.6-2.3,29.7-17,80-6.8C107.1,38.9,75.4,47,75.1,47z"/>
	<path fill="#D6D1A2" d="M69.3,87.2c0.3,0.2,26.9,18,49.1,10.2c18.1-6.3,25-22,26.9-27.6c-8.3,8.2-23.4,20.3-41.5,20.9
		c-0.6,0-1.2,0-1.9,0c-10.9,0-25-2.8-34.3-15.2c0.1,1.2,0.2,2.5,0.4,3.8c0.3,2.8,0.5,5.4,0.6,7.8C68.8,87.1,69.1,87.1,69.3,87.2z"/>
	<path fill="#B6B076" d="M65.5,121.8c1,0,1.8,0,2.6,0c-1-3.7,0.2-13,0.3-13.4c0-0.3,0.2-0.5,0.5-0.6c0-0.2-0.1-0.3-0.1-0.5
		c-0.8-0.1-2.5-0.2-4.7-0.4C63.7,110.5,63.5,119,65.5,121.8z"/>
	<path fill="#B6B076" d="M114.7,33.2c-21.5-10.4-39.7-7.1-39.9-7c-0.1,0-0.2,0-0.3,0c-3.6,5.9-5.9,13.3-7,22.3
		C72.7,45.9,92.1,37.2,114.7,33.2z"/>
	<path fill="#E8DF9F" d="M79.5,76.3c0.1,0.1,0.1,0.2,0.1,0.3c0.1,0.4,2.6,8.8,10.5,6.9c6.8-1.7,6.8-9.3,6.6-11.5
		c-1.4,0.2-2.7,0.4-3.9,0.6c0.4,0.1,0.7,0.2,0.9,0.4c0.7,1.3,1,4.9-3.3,5.5c-4.2,0.6-4.7-2.7-4.6-4.3C83.4,74.9,81.3,75.6,79.5,76.3
		z"/>
	<path fill="#D6D1A2" d="M63.7,121.8c-1.9-4.1-1.4-12.9-1.2-15c-1-0.1-2.1-0.2-3.3-0.3c-0.2,0.5-3.1,9-2.6,15c0,0.2,0,0.3-0.1,0.4
		C59,121.8,61.5,121.8,63.7,121.8z"/>
	<path fill="#E8DF9F" d="M112,100.5c0.5,1.2,2,3.9,3.6,3.8c2.5-0.2,3.2-0.7,4.7-1.7c0.8-0.5,1-2.9,1-4.6c-0.8,0.3-1.6,0.7-2.5,0.9
		C116.6,99.7,114.3,100.2,112,100.5z"/>
	<path fill="#E8DF9F" d="M111.6,71.4c-1.6-0.1-3.2-0.1-4.8-0.2c-0.2,1.3-0.7,5.5,1.4,8.4c1.3,1.8,3.3,2.9,6,3.2
		c8.8,1.1,11.7-5,12.7-8.7c0,0,0-0.1,0.1-0.1c-1.9-0.5-3.7-1-5.6-1.4c0.3,2-0.6,5.6-5.4,5.2C110.6,77.5,110.9,73.3,111.6,71.4
		C111.5,71.4,111.5,71.4,111.6,71.4z"/>
	<path fill="#B6B076" d="M150.3,62.1c-0.1,0-0.3,0.1-0.4,0c-55.6-12.2-82.2,6-82.5,6.2c-0.1,0.1-0.2,0.1-0.3,0.1
		c0.1,1.5,0.2,3,0.3,4.6c0.1,0,0.2,0.1,0.3,0.1c0.2,0.1,0.3,0.3,0.7,0.9c1.1,1.5,2.2,2.8,3.4,4c2.4-1.4,30.8-16.5,64.5-2.3
		c0,0,0,0,0,0C143.8,69.9,148.8,64,150.3,62.1z"/>
	<path fill="#849381" d="M103.7,89.2c12.2-0.4,23-6.2,31.2-12.4c-2.3-0.9-4.5-1.7-6.7-2.4c0,0,0,0,0,0.1c-1.6,6.4-6,10-12.1,10
		c-0.7,0-1.4,0-2.2-0.1c-3.1-0.4-5.5-1.7-7-3.8c-2.3-3.3-2-7.5-1.7-9.3c-2.5,0-4.8,0.2-7.1,0.5c0.2,2.5,0.2,11.2-7.8,13.2
		c-0.9,0.2-1.8,0.3-2.6,0.3c-7.3,0-9.6-8.2-9.7-8.3c0-0.1,0-0.1,0-0.2c-2.6,1.1-4.4,2-5.2,2.4C82.2,87.8,94.4,89.5,103.7,89.2z"/>
	<path fill="#849381" d="M44.2,131.7c-0.8-0.3-2.3-0.9-3.5-1.1c-1.4-0.2-2-1.9-2.6-3.7c-0.4-1.3-1-3-1.7-3.2
		c-2.1-0.5-3.8-0.4-4.6,0.3c-0.3,0.3,0.3,2.4,1.4,4.4c0.2,0.4,0.1,0.8-0.3,1c-0.3,0.2-0.8,0.1-1-0.2c-0.8-1.2-3.3-4.2-5.3-3.7
		c-0.4,0.1-0.9,0.2-1.2,0.3c-2.2,0.5-3.5,0.8-4,3.1c-0.1,0.3,0,0.5,0.2,0.8c1,1.6,5.3,2.5,6.9,2.8c0.3,0.1,0.6,0.3,0.6,0.6
		c0,0.3-0.1,0.6-0.4,0.8c-1.7,0.8-6.3,3.4-6.7,6.3c-0.3,2.5,0.4,2.7,1.7,3c0.4,0.1,0.8,0.2,1.3,0.4c0.7,0.3,3.2-1.9,5.2-4.5
		c0.2-0.3,0.6-0.4,0.9-0.2c0.3,0.2,0.5,0.5,0.4,0.9c-0.6,2.4-0.9,6.3,0.3,7.2c1.1,0.9,2.3,1.2,3.2,1.1c0.6-0.1,1.1-0.5,1.5-1.1
		c0.6-1,1-1.9,1.3-2.8c0.4-1,0.7-1.8,1.3-2.2c0.8-0.5,4.8-1.8,6.6-2.3C44.4,137.3,43.9,134.4,44.2,131.7z"/>
	<path fill="#B6B076" d="M73.6,149.3c0.2,0,11.8,0.5,24.6-4.4c-8.4-0.6-13.8-4.7-14-4.9c-0.1-0.1-0.2-0.2-0.2-0.3
		c-2.6,0.5-5.6,1.1-8.6,1.7c-0.2,0-0.4,0.1-0.6,0.1c-0.1,0.5-1.1,3.6-1.4,7.7C73.5,149.3,73.6,149.3,73.6,149.3z"/>
	<path fill="#B6B076" d="M48.3,129c-1.4,0.6-2.4,1.4-2.6,2.4c-0.8,5,1.5,10.9,7.3,11.8c0.5,0.1,1,0.1,1.6,0.1
		C47.6,137.6,47.9,131.3,48.3,129z"/>
	<path fill="#D6D1A2" d="M78.4,176.8c0.1,0.1,0.1,0.2,0.2,0.4c0.4-0.2,0.7-0.5,1.1-0.7c-1.9-1.4-1.8-6-1.8-6.9
		c0-0.2,0.1-0.4,0.2-0.5c-1.7-1.6-3-3.5-3.9-5.4c0,0-0.1,0.1-0.1,0.1c-0.1,0-0.8,0.3-1.8,0.6C72.8,165.7,75.6,173.6,78.4,176.8z"/>
	<path fill="#D6D1A2" d="M63.9,166.9c-0.6,0.2-1.2,0.4-1.8,0.5c0.2,1,1.6,8.8,3.5,16.2c3.1-1.3,6.2-2.8,9.1-4.4
		C70.6,176.7,65.1,168.7,63.9,166.9z"/>
	<path fill="#D6D1A2" d="M53.6,127.4c-1.3,0.3-2.5,0.6-3.6,0.9c0,0.1,0,0.1,0,0.2c-0.1,0.3-2.6,7.8,6.9,14.5c0.1,0,0.1,0.1,0.1,0.1
		c2-0.2,4.4-0.5,7-1C57.2,138.4,54.1,129,53.6,127.4z"/>
	<path fill="#849381" d="M35.3,108.8c0.3-1,0.7-1.8,1.1-2.5c-0.7,0-4.9-0.3-6.5-0.8c-1.1-0.4-1.5-2-2.1-4.8
		c-0.3-1.7-0.9-4.5-1.7-4.8c-0.8-0.3-3.3-1.1-4.1,0.4c-0.4,0.8,0.5,3.8,1.6,6.2c0.2,0.3,0,0.8-0.3,1c-0.3,0.2-0.7,0.1-1-0.2
		c-1.3-1.7-5.6-6.3-7.8-5.1c-2.7,1.5-3.9,3.5-3.6,5.9c0.1,0.9,3.4,0.7,4.8,0.6c1.6-0.1,2.3-0.1,2.8,0.2c0.9,0.6,0.3,1.6-0.7,3.2
		c-1.1,2-2.9,5-2,6.9c1,2.2,2.5,1.9,4,1.6c0.4-0.1,0.7-0.1,1-0.2c0.2-0.3,0.6-1.2,0.8-2c0.8-2.2,1.8-4.9,4-4.9
		c0.2,0,0.5,0.1,0.6,0.3c0.1,0.2,0.2,0.4,0.1,0.7c-0.5,2-1.1,6.4,0.6,7c1.7,0.6,2.4-0.2,3.3-1.6c0.2-0.3,0.4-0.6,0.6-0.8
		c1-1.2,3-1.4,4-1.4C34.8,112.1,34.8,110.4,35.3,108.8z"/>
	<path fill="#B6B076" d="M43.9,104.8c-4-0.1-6.1,0.9-7.2,4.5c-0.8,2.8,0,6,2.1,8.8C39.2,115.9,40.6,109.4,43.9,104.8z"/>
	<path fill="#B6B076" d="M51.8,121.4c0.1,0.2,0.1,0.4,0.1,0.5c1.1,0,2.2,0,3.4,0c-0.1-0.1-0.1-0.2-0.1-0.3c-0.5-5.8,2-13.5,2.6-15.3
		c-2-0.2-4.1-0.5-6.1-0.7l-1.4-0.2C49.9,107.4,48.9,116,51.8,121.4z"/>
	<path fill="#B6B076" d="M66.2,141.7c0.1,0,0.1,0.1,0.2,0.1c0.1,0,0.2,0,0.4-0.1c-0.2-1.6-1.2-11.3-0.3-16.6
		c-2.2,0.5-4.7,0.9-7.1,1.3c-1.4,0.2-2.8,0.5-4.2,0.7C55.7,129.1,59.2,138.9,66.2,141.7z"/>
	<path fill="#D6D1A2" d="M48.7,105.2c-1.1-0.1-2-0.2-2.9-0.3c-4.2,5.1-5.5,14-5.6,14.1c0,0.2-0.1,0.3-0.2,0.4c1.8,1.8,4,2.8,6,2.7
		c1.1,0,2.6-0.1,4.3-0.1C47.3,116.1,48.4,107.4,48.7,105.2z"/>
	<path fill="#D6D1A2" d="M107.5,132.2c0.2,0.1,0.3,0.3,0.4,0.4c0.8-0.4,1.6-0.9,2.4-1.4c-2.1-2.3-3.1-6.9-3.3-7.8
		c-2.9-0.1-6-0.3-9.5-0.6C98.8,124.7,102.3,129.6,107.5,132.2z"/>
	<path fill="#B6B076" d="M76,93.3c0-0.2,0-0.3,0.1-0.5c-3.9-1.9-6.6-3.6-7.4-4.2c0.1,1.7,0.1,3.4,0.2,5c0.2,4.9,0.3,9,1,12.5
		c0.1,0.1,0.2,0.3,0.2,0.5c0,0,0,0.1,0,0.1c0.5,2.2,1.3,4.2,2.6,5.9c2-0.6,11.7-3.4,16.7-4.8C77.8,102.5,76.1,93.8,76,93.3z"/>
	<path fill="#D6D1A2" d="M85.6,121.1c-0.1,0.2-0.3,0.3-0.6,0.3c0,0-3.1,0.1-7.3,0.8c2.2,2.6,10.2,11.8,16.1,14.7c0,0,0,0,0,0
		c0.5-0.1,1-0.2,1.5-0.3c-1.5-2.1-6.5-9.5-7.2-14.9c0-0.1,0-0.2,0-0.2C87.3,121.4,86.4,121.3,85.6,121.1z"/>
	<path fill="#B6B076" d="M117,123.1c-2.2,0.2-4.5,0.3-7,0.3c0,0,0,0,0,0c-0.5,0-1,0-1.4,0c0.3,1.3,1.3,5.3,3,6.9
		C114,128.4,116,126,117,123.1z"/>
	<path fill="#B6B076" d="M91.3,137.3c-6.6-4.2-14.4-13.6-15.3-14.7c-1.2,0.2-2.4,0.5-3.6,0.8c1.4,3.3,5.5,12.7,9.1,15.2
		c0,0,0.1,0.1,0.1,0.1c3.4-0.7,6.4-1.2,8.4-1.3C90.4,137.4,90.8,137.3,91.3,137.3z"/>
	<path fill="#D6D1A2" d="M69.6,110.2c-0.3,2.9-0.8,8.8-0.1,11.3c0,0.1,0,0.2,0,0.3c1,0,1.6,0,1.6,0c0.2,0,0.4,0.1,0.5,0.2
		c4-1.1,7.8-1.6,10.2-1.9C75,118,71.5,114.7,69.6,110.2z"/>
	<path fill="#B6B076" d="M89.7,121.8c0.9,5.8,7.2,14.4,7.2,14.5c0,0,0,0,0,0c3.1-0.7,6.5-1.7,9.5-3.1c-6.8-3.6-10.6-10.4-10.8-10.7
		c0,0,0-0.1,0-0.1c-1-0.1-2-0.2-3.1-0.3C91.6,122.1,90.6,122,89.7,121.8z"/>
	<path fill="#D6D1A2" d="M79.7,139.1c-3.7-3.5-7.5-12.3-8.8-15.3c-0.5,0.2-1.1,0.3-1.6,0.5c-0.4,0.1-0.8,0.3-1.3,0.4
		c-1.1,4.7-0.1,14.8,0.2,16.8c2.3-0.4,4.6-0.9,6.9-1.4C76.7,139.7,78.2,139.4,79.7,139.1z"/>
	<path fill="#E8DF9F" d="M88.7,101.7c2,1,4.5,1.5,6.5,1.3c1.3-0.2,2.5-1.9,3-2.8c-3.5-0.6-6.9-1.4-10.1-2.5c0,0,0,0.1,0,0.1
		C88.1,97.9,87.2,101,88.7,101.7z"/>
	<path fill="#310024" d="M105.8,7.7c-12.6,0.5-22.4,4.8-29.1,12.7c-5.9,6.9-9.5,16.5-10.8,28.8c-0.2,0.2-0.3,0.6-0.1,0.9
		c0,0,0,0,0,0c-0.8,8.5-0.6,18.2,0.7,29.3c0.6,5.3,0.8,10,0.9,14.3c0.2,4.5,0.3,8.6,1,12.1c-2.7-0.2-9.9-0.9-16.6-1.8l-1.4-0.2
		c-5.8-0.7-10.4-1.3-13.1,1.4c-0.1-0.3-0.3-0.4-0.6-0.5c-1.3-0.1-4.9-0.3-6.1-0.7c-0.4-0.3-0.8-2.3-1.1-3.7
		c-0.6-2.7-1.1-5.3-2.6-5.9c-2.8-1.1-5.1-0.6-6,1.2c-0.4,0.9-0.2,2.4,0.2,3.9C19,97.7,16.1,95.7,14,97c-4,2.3-4.6,5.3-4.3,7.3
		c0.3,2.3,3.8,2.1,6.4,1.9c0.5,0,1-0.1,1.4-0.1c-0.2,0.4-0.4,0.8-0.7,1.2c-1.3,2.3-3.2,5.7-2.1,8.2c1.5,3.3,4.2,2.7,5.6,2.4
		c0.3-0.1,0.7-0.1,0.9-0.1c1.1,0,1.5-1.2,2.1-2.9c0.4-1.1,0.9-2.5,1.6-3.3c-0.4,2.3-0.7,6.3,1.9,7.3c0.6,0.2,1.1,0.3,1.6,0.3
		c1.8,0,2.8-1.4,3.5-2.5c0.2-0.3,0.3-0.5,0.5-0.7c0.6-0.8,2.6-0.8,3.3-0.8c0.5,1.3,1.2,2.6,2.1,3.7c2.3,2.9,5.4,4.6,8.4,4.5
		c4.1-0.2,14.9-0.2,20.9-0.3c-0.1,0-0.1,0.1-0.1,0.2c-2.3,0.6-5.1,1.1-7.8,1.5c-6.7,1.1-13.1,2.2-14.5,5.3c-0.9-0.3-2.4-0.9-3.7-1.1
		c-0.5-0.1-1-1.7-1.4-2.7c-0.6-1.9-1.3-3.8-2.8-4.1c-1.6-0.4-4.5-0.8-6,0.7c-0.5,0.5-0.6,1.4-0.4,2.3c-1.2-0.9-2.6-1.6-4-1.2
		c-0.4,0.1-0.8,0.2-1.2,0.3c-2.3,0.6-4.4,1.1-5.1,4.2c-0.2,0.7,0,1.4,0.4,2c1,1.6,3.8,2.5,5.8,3c-2.1,1.2-5.3,3.6-5.7,6.5
		c-0.5,3.8,1.3,4.3,2.8,4.7c0.4,0.1,0.7,0.2,1.1,0.3c1.5,0.6,3.6-1.2,5.2-2.8c-0.2,2.1-0.2,4.8,1.3,5.9c1.2,0.9,2.5,1.4,3.7,1.4
		c0.2,0,0.5,0,0.7-0.1c1-0.2,1.9-0.8,2.5-1.8c0.7-1.1,1.1-2.1,1.4-3c0.2-0.6,0.5-1.4,0.7-1.5c0.4-0.3,3.7-1.4,6.7-2.3
		c1.4,1.9,3.5,3.3,6.3,3.7c0.5,0.1,1.2,0.1,1.9,0.1c4.2,0,11.3-1.4,18.4-2.9c-0.8,2.9-2.8,12.2,0.5,20.3c0,0,0,0,0,0
		c-5.3,1.8-19.5,6.3-22.3,6.3c-0.9,0-1.6-1.9-2.3-3.8c-1.3-3.4-2.8-7.5-7.2-7.5c0,0,0,0,0,0c0,0,0,0,0,0c-2.5,0-4.5,1.2-5.8,3.3
		c-2.3,3.8-2,10,0.9,15.8c4.9,9.9,8.6,14.4,12,14.7c0,0,0.1,0,0.2,0c4,0,29.5-9.9,35.9-16.9c0.2-0.2,0.2-0.4,0.2-0.6
		c3.6,1.5,7.5,2.2,11.5,2.2c1.8,0,3.6-0.2,5.4-0.5c0.6,1.6,2.2,6.1,3.8,10.6c0,0.1,0,0.2,0.1,0.3c1.7,4.5,3.3,9,3.9,10.1
		c-0.3,0.4-1.2,1.2-1.9,1.9c-3,2.6-7.5,6.6-5.7,10.9c0.7,1.8,1.9,3.1,3.6,3.7c1,0.4,2,0.5,3.1,0.5c3.3,0,7-1.4,10.2-2.8
		c7-3.1,8.9-5.9,9.7-9.8c0.8-3.9-3.5-34.4-4.5-39.7c0-0.1-0.1-0.2-0.1-0.3c0.3-0.7,0.6-1.3,0.9-2c4.4-12,1-34.8,0.6-37.2
		c12.8-3.6,19.9-12.4,23.5-28.2c0.5-2.1,1-4.3,1.6-6.6c4.9-20.3,11.6-48.1-1.7-64.9C141.1,11.6,126.5,6.9,105.8,7.7z M147.9,22.7
		c2.3,2.9,4,6.2,5.2,9.8c-11.7-2.2-24.2-1.6-35.9,0.3c0,0,0,0-0.1-0.1c-6.1-3.1-12-5.1-17.3-6.4c3.6-1.8,21.8-10.4,44.6-6.4
		c0.3,0,0.5-0.1,0.7-0.2C146.1,20.5,147,21.6,147.9,22.7z M150.9,79.6C150.9,79.6,150.9,79.6,150.9,79.6
		c-4.1,4.2-12.3,8.7-18.7,11.7c11.8-9.8,15.1-23,15.1-23.1c0-0.1,0-0.3,0-0.4c2.4-2.5,3.9-4.4,4.5-5.1c0.7,0.4,1.4,0.8,2.1,1.2
		c0,0,0.1,0,0.1,0.1C153.2,69.3,152.1,74.6,150.9,79.6z M124.4,96.5c0.3-0.1,2.7-1.1,6.1-2.7c-0.4,2-3.3,13.9-17.4,16.2
		c0.1-0.2,0.2-0.5,0.1-0.7c-0.2-0.4-1.8-4.3-3.9-4.9c-2-0.6-7.7-0.3-8.6,0c-0.7,0.2-1.7,1.8-2.8,4.7c0,0,0,0.1,0,0.1
		C81.9,105.5,78.3,96,77.6,93.6c2.6,1.2,5.7,2.6,9.1,3.7c0,0-0.1,0.1-0.1,0.2c-0.1,0.2-1.2,4.3,1.4,5.6c1.9,0.9,4.1,1.5,6.1,1.5
		c0.4,0,0.8,0,1.2-0.1c2.4-0.3,4.1-3.5,4.3-3.8c0-0.1,0-0.1,0-0.2c2.2,0.3,4.3,0.5,6.6,0.5c1.4,0,2.8-0.1,4.2-0.2c0,0,0,0.1,0,0.1
		c0.2,0.5,2,5,5,5c0.1,0,0.2,0,0.3,0c2.8-0.3,3.7-0.9,5.4-2c1.9-1.2,1.7-5.6,1.7-6.5c0,0,0,0,0,0C123.3,97,123.9,96.8,124.4,96.5
		C124.4,96.5,124.4,96.5,124.4,96.5z M129.2,101.3c2.6,0,9.5-0.8,18.5-8.1c-1.6,7-4,12.6-7.3,16.9c-7.6,1.3-18,0.7-23,0.3
		c5.8-2,9.4-5.7,11.6-9.2C129,101.3,129.1,101.3,129.2,101.3z M112,110.1c-2.4,0.3-5.1,0.3-8.2,0c-1.6-0.2-3.2-0.4-4.6-0.7
		c0.6-1.6,1.6-3.4,1.9-3.7c0.6-0.2,6-0.5,7.8,0c1.1,0.3,2.4,2.7,2.9,4.1C111.8,110,111.9,110.1,112,110.1z M119.9,134.6
		c2,0,4-0.1,5.6-0.4c0.2,2.4,0.3,4.9,0.3,7.4c-0.1,0-0.2,0.1-0.3,0.1c-18.7,14.8-48.3,13.8-52,13.6c-0.2-1.6-0.2-3.2-0.1-4.7
		c0.1,0,0.1,0,0.2,0c0,0,0.4,0,1.1,0c5.2,0,27.3-0.9,42.9-16.2C118.4,134.6,119.1,134.6,119.9,134.6z M81.3,169.2
		c-0.2,0.1-0.3,0.2-0.4,0.3c-4.5-3.3-6.5-8-7.2-12.6c0.7,0,2,0.1,3.6,0.1c7.2,0,22.2-0.8,35.9-6.5C109.1,154.4,97,164.8,81.3,169.2z
		 M101.8,143.5c-7.9,0.4-13.7-2.8-15.8-4.1c1.6-0.3,3-0.5,4.1-0.5c1.6-0.1,11-0.9,18.8-5c0.7,0.1,3.4,0.4,6.7,0.6
		C111.2,138.4,106.5,141.3,101.8,143.5z M68.2,141.4c-0.2-1.9-1.3-12-0.2-16.8c0.4-0.1,0.9-0.2,1.3-0.4c0.5-0.2,1.1-0.3,1.6-0.5
		c1.2,3,5.1,11.8,8.8,15.3c-1.5,0.3-3,0.6-4.6,1C72.8,140.5,70.5,141,68.2,141.4z M81.5,138.7c0,0-0.1-0.1-0.1-0.1
		c-3.5-2.5-7.7-11.9-9.1-15.2c1.2-0.3,2.5-0.6,3.6-0.8c0.9,1.1,8.7,10.6,15.3,14.7c-0.5,0-0.9,0.1-1.4,0.1
		C87.9,137.5,84.9,138,81.5,138.7z M111.5,130.3c-1.7-1.7-2.7-5.6-3-6.9c0.5,0,1,0,1.4,0c0,0,0,0,0,0c2.5,0,4.8-0.1,7-0.3
		C116,126,114,128.4,111.5,130.3z M107,123.3c0.2,0.9,1.2,5.6,3.3,7.8c-0.8,0.5-1.6,1-2.4,1.4c-0.1-0.2-0.2-0.3-0.4-0.4
		c-5.2-2.6-8.8-7.5-10-9.4C101,123.1,104.1,123.3,107,123.3z M95.7,122.5C95.7,122.6,95.7,122.6,95.7,122.5
		c0.2,0.4,4.1,7.2,10.8,10.8c-3.1,1.4-6.4,2.4-9.5,3.1c0,0,0,0,0,0c-0.1-0.1-6.4-8.7-7.2-14.5c0.9,0.1,1.8,0.3,2.8,0.4
		C93.6,122.3,94.7,122.4,95.7,122.5z M95.4,136.7c-0.5,0.1-1,0.2-1.5,0.3c0,0,0,0,0,0c-5.9-2.9-13.9-12-16.1-14.7
		c4.2-0.7,7.3-0.8,7.3-0.8c0.3,0,0.5-0.1,0.6-0.3c0.8,0.2,1.7,0.4,2.6,0.5c0,0.1,0,0.2,0,0.2C88.9,127.2,93.9,134.6,95.4,136.7z
		 M71.7,122c-0.1-0.1-0.3-0.2-0.5-0.2c0,0-0.6,0-1.6,0c0-0.1,0-0.2,0-0.3c-0.7-2.4-0.2-8.4,0.1-11.3c1.9,4.4,5.4,7.8,12.4,9.9
		C79.5,120.4,75.8,120.9,71.7,122z M72.7,112.7c-1.3-1.7-2.1-3.6-2.6-5.9c0,0,0-0.1,0-0.1c0-0.2,0-0.4-0.2-0.5
		c-0.7-3.5-0.9-7.6-1-12.5c-0.1-1.6-0.1-3.3-0.2-5c0.8,0.5,3.5,2.2,7.4,4.2C76,93,76,93.1,76,93.3c0.1,0.5,1.8,9.3,13.4,14.6
		C84.4,109.3,74.7,112.1,72.7,112.7z M88.1,97.9c0,0,0-0.1,0-0.1c3.2,1,6.6,1.9,10.1,2.5c-0.5,0.9-1.7,2.6-3,2.8
		c-1.9,0.2-4.4-0.2-6.5-1.3C87.2,101,88.1,97.9,88.1,97.9z M121.3,97.9c0,1.7-0.2,4.1-1,4.6c-1.5,1-2.2,1.5-4.7,1.7
		c-1.6,0.1-3.1-2.6-3.6-3.8c2.3-0.3,4.6-0.8,6.9-1.6C119.7,98.6,120.5,98.3,121.3,97.9z M90.4,78.5c4.3-0.6,4-4.2,3.3-5.5
		c-0.1-0.2-0.4-0.4-0.9-0.4c1.3-0.2,2.6-0.4,3.9-0.6c0.2,2.2,0.2,9.9-6.6,11.5c-7.9,1.9-10.4-6.5-10.5-6.9c0-0.1-0.1-0.2-0.1-0.3
		c1.8-0.7,3.9-1.4,6.3-2.1C85.6,75.8,86.2,79.1,90.4,78.5z M78.2,76.8c0,0.1,0,0.1,0,0.2c0,0.1,2.4,8.3,9.7,8.3
		c0.8,0,1.7-0.1,2.6-0.3c8-1.9,7.9-10.7,7.8-13.2c2.2-0.3,4.6-0.4,7.1-0.5c-0.3,1.7-0.6,6,1.7,9.3c1.5,2.2,3.9,3.5,7,3.8
		c0.8,0.1,1.5,0.1,2.2,0.1c6.2,0,10.5-3.5,12.1-10c0,0,0,0,0-0.1c2.2,0.7,4.4,1.5,6.7,2.4c-8.2,6.2-19.1,12-31.2,12.4
		c-9.3,0.3-21.5-1.4-30.8-10C73.8,78.8,75.5,77.9,78.2,76.8z M115.9,77.9c4.8,0.4,5.7-3.2,5.4-5.2c1.8,0.4,3.7,0.8,5.6,1.4
		c0,0,0,0.1-0.1,0.1c-0.9,3.7-3.8,9.8-12.7,8.7c-2.7-0.3-4.7-1.4-6-3.2c-2.1-3-1.6-7.1-1.4-8.4c1.6,0,3.1,0,4.8,0.2c0,0,0,0,0,0.1
		C110.9,73.3,110.6,77.5,115.9,77.9z M136.3,75.8C136.3,75.8,136.3,75.8,136.3,75.8c-33.8-14.2-62.1,1-64.5,2.3
		c-1.2-1.2-2.3-2.6-3.4-4c-0.4-0.5-0.5-0.7-0.7-0.9c-0.1-0.1-0.2-0.1-0.3-0.1c-0.1-1.6-0.2-3.1-0.3-4.6c0.1,0,0.2,0,0.3-0.1
		c0.3-0.2,26.9-18.4,82.5-6.2c0.1,0,0.3,0,0.4,0C148.8,64,143.8,69.9,136.3,75.8z M74.5,26.1c0.1,0,0.2,0,0.3,0
		c0.2,0,18.3-3.3,39.9,7c-22.6,4.1-41.9,12.8-47.2,15.2C68.6,39.4,70.9,32,74.5,26.1z M67,66.8c-0.3-6.1-0.2-11.6,0.3-16.7
		c1-0.5,3.5-1.7,7.2-3.2c0.2,0.1,0.4,0.2,0.6,0.1c0.3-0.1,31.9-8.2,71.9,13C96.7,49.8,70.6,64.6,67,66.8z M118.9,47.5
		c-17.6-4.5-31.5-3.8-38.8-2.9c17-6.6,47.2-15.8,73.4-10.6c1.1,3.8,1.6,7.8,1.8,12c-20.1-3.3-35.7,0.8-35.9,0.9
		C119.2,47,119,47.2,118.9,47.5z M77.9,21.4c6.5-7.6,15.9-11.7,28-12.2c1.6-0.1,3.2-0.1,4.8-0.1c14.3,0,25.3,3,32.7,9
		c-25.3-3.9-44.8,7-45,7.2c-0.2,0.1-0.3,0.3-0.4,0.6c-11.1-2.4-19.6-1.7-22.5-1.3C76.3,23.4,77,22.4,77.9,21.4z M67.6,75.5
		c9.3,12.4,23.4,15.2,34.3,15.2c0.6,0,1.3,0,1.9,0c18.1-0.5,33.2-12.6,41.5-20.9c-1.9,5.6-8.8,21.3-26.9,27.6
		c-22.1,7.7-48.8-10.1-49.1-10.2c-0.2-0.1-0.4-0.1-0.6-0.1c-0.1-2.5-0.3-5.1-0.6-7.8C67.8,78,67.7,76.8,67.6,75.5z M68.8,107.8
		c-0.2,0.1-0.4,0.3-0.5,0.6c-0.1,0.4-1.3,9.7-0.3,13.4c-0.8,0-1.7,0-2.6,0c-1.9-2.8-1.7-11.3-1.5-14.9c2.2,0.2,3.9,0.4,4.7,0.4
		C68.7,107.5,68.8,107.7,68.8,107.8z M59.2,106.4c1.2,0.1,2.3,0.2,3.3,0.3c-0.2,2.1-0.7,10.9,1.2,15c-2.2,0-4.8,0-7.2,0
		c0.1-0.1,0.1-0.3,0.1-0.4C56.1,115.4,59,106.9,59.2,106.4z M51.5,105.5c2,0.3,4.1,0.5,6.1,0.7c-0.6,1.8-3,9.5-2.6,15.3
		c0,0.1,0.1,0.2,0.1,0.3c-1.2,0-2.3,0-3.4,0c0-0.2,0-0.4-0.1-0.5c-2.9-5.3-1.9-14-1.6-16L51.5,105.5z M31.2,115.2
		c-0.2,0.3-0.4,0.5-0.6,0.8c-0.9,1.4-1.6,2.2-3.3,1.6c-1.7-0.6-1.1-5-0.6-7c0.1-0.2,0-0.5-0.1-0.7c-0.1-0.2-0.4-0.3-0.6-0.3
		c-2.3,0-3.3,2.7-4,4.9c-0.3,0.7-0.6,1.7-0.8,2c-0.3,0-0.7,0.1-1,0.2c-1.5,0.3-3,0.6-4-1.6c-0.9-1.9,0.9-4.9,2-6.9
		c0.9-1.7,1.5-2.7,0.7-3.2c-0.5-0.3-1.2-0.3-2.8-0.2c-1.4,0.1-4.7,0.3-4.8-0.6c-0.3-2.4,1-4.3,3.6-5.9c2.1-1.2,6.4,3.4,7.8,5.1
		c0.2,0.3,0.7,0.4,1,0.2c0.3-0.2,0.5-0.6,0.3-1c-1.1-2.4-2-5.5-1.6-6.2c0.8-1.5,3.3-0.7,4.1-0.4c0.7,0.3,1.3,3.1,1.7,4.8
		c0.6,2.8,1,4.4,2.1,4.8c1.6,0.5,5.7,0.8,6.5,0.8c-0.4,0.7-0.8,1.5-1.1,2.5c-0.5,1.6-0.5,3.3-0.1,5
		C34.2,113.8,32.2,113.9,31.2,115.2z M36.7,109.2c1.1-3.6,3.2-4.6,7.2-4.5c-3.4,4.6-4.7,11.1-5.1,13.2
		C36.7,115.3,35.9,112,36.7,109.2z M46,122c-2,0.1-4.2-0.9-6-2.7c0.1-0.1,0.2-0.2,0.2-0.4c0-0.1,1.3-9,5.6-14.1
		c0.9,0.1,1.9,0.2,2.9,0.3c-0.3,2.2-1.4,11,1.7,16.7C48.6,121.9,47.1,122,46,122z M59.3,126.4c2.4-0.4,4.9-0.8,7.1-1.3
		c-1,5.4,0.1,15,0.3,16.6c-0.1,0-0.2,0-0.4,0.1c-0.1,0-0.1-0.1-0.2-0.1c-7-2.7-10.5-12.6-11.1-14.5
		C56.5,126.9,57.9,126.6,59.3,126.4z M56.8,143.1c-9.4-6.7-7-14.2-6.9-14.5c0-0.1,0-0.1,0-0.2c1.1-0.3,2.3-0.7,3.6-0.9
		c0.5,1.6,3.6,11,10.3,14.8c-2.6,0.5-5,0.8-7,1C56.9,143.2,56.9,143.1,56.8,143.1z M39,142c-0.6,0.4-0.9,1.2-1.3,2.2
		c-0.3,0.8-0.7,1.8-1.3,2.8c-0.4,0.6-0.9,1-1.5,1.1c-0.9,0.2-2.1-0.2-3.2-1.1c-1.2-0.9-0.9-4.7-0.3-7.2c0.1-0.3-0.1-0.7-0.4-0.9
		c-0.3-0.2-0.7-0.1-0.9,0.2c-2,2.7-4.5,4.8-5.2,4.5c-0.4-0.2-0.9-0.3-1.3-0.4c-1.4-0.4-2-0.5-1.7-3c0.4-2.9,5-5.5,6.7-6.3
		c0.3-0.1,0.5-0.5,0.4-0.8c0-0.3-0.3-0.6-0.6-0.6c-1.6-0.2-5.9-1.2-6.9-2.8c-0.2-0.3-0.2-0.5-0.2-0.8c0.6-2.3,1.8-2.6,4-3.1
		c0.4-0.1,0.8-0.2,1.2-0.3c1.9-0.5,4.5,2.5,5.3,3.7c0.2,0.3,0.7,0.4,1,0.2c0.3-0.2,0.5-0.7,0.3-1c-1.1-2-1.7-4-1.4-4.4
		c0.7-0.7,2.5-0.9,4.6-0.3c0.7,0.2,1.3,1.9,1.7,3.2c0.6,1.8,1.2,3.5,2.6,3.7c1.2,0.2,2.8,0.7,3.5,1.1c-0.3,2.7,0.2,5.6,1.5,7.9
		C43.9,140.2,39.8,141.5,39,142z M45.8,131.4c0.2-1,1.1-1.7,2.6-2.4c-0.4,2.3-0.8,8.6,6.3,14.3c-0.6,0-1.1,0-1.6-0.1
		C47.3,142.3,45,136.4,45.8,131.4z M75.4,141.5c3.1-0.6,6-1.3,8.6-1.7c0,0.1,0.1,0.2,0.2,0.3c0.3,0.2,5.6,4.2,14,4.9
		c-12.8,4.9-24.5,4.4-24.6,4.4c-0.1,0-0.1,0-0.2,0c0.3-4.1,1.2-7.2,1.4-7.7C75,141.6,75.2,141.5,75.4,141.5z M74.1,163.7
		c0,0,0.1,0,0.1-0.1c0.9,1.9,2.2,3.8,3.9,5.4c-0.1,0.1-0.2,0.3-0.2,0.5c0,0.9-0.2,5.5,1.8,6.9c-0.4,0.2-0.7,0.5-1.1,0.7
		c0-0.1-0.1-0.3-0.2-0.4c-2.8-3.2-5.6-11.1-6.1-12.5C73.3,164,74,163.8,74.1,163.7z M65.7,183.7c-1.9-7.4-3.3-15.2-3.5-16.2
		c0.6-0.2,1.2-0.4,1.8-0.5c1.2,1.8,6.7,9.7,10.8,12.4C72,180.9,68.8,182.4,65.7,183.7z M60.7,185.8c-0.1-0.1-0.2-0.2-0.4-0.3
		c-0.9-0.2-2-0.4-3.3-0.5c-1.9-2.8-4.1-12.2-4.7-15c0.1,0,0.3,0,0.4-0.1c3.3,4.9,8.4,12.3,11,14.6C62.7,185,61.7,185.4,60.7,185.8z
		 M54.3,169.6c1.8-0.4,4-1,6.4-1.7c0.3,1.4,1.5,8,3.2,14.8C61.9,180.4,57.9,174.9,54.3,169.6z M75.8,178.2
		c-3.6-2.1-8.8-9.4-10.4-11.7c2-0.6,3.9-1.2,5.4-1.7c0.5,1.4,3.4,9.5,6.4,13c0,0,0.1,0.1,0.1,0.1c-0.4,0.2-0.8,0.5-1.3,0.7
		C76.1,178.5,76,178.3,75.8,178.2z M50.7,170c0.5,2.2,2.4,10.8,4.4,14.8c-2.1-0.3-4.4-0.5-6.5-0.7c0-0.1-0.1-0.2-0.1-0.3
		c-2-2.9-4.1-14.2-4.6-16.7c0.9-1.7,1.8-3.4,2.5-4.6c0.4,0.9,0.8,1.9,1.1,2.8C48.5,167.6,49.2,169.6,50.7,170z M39.3,177.7
		c0.1-0.1,0.1-0.2,0.1-0.3c0.1-1.2,1.7-4.6,3.5-8.1c0.7,3.9,2.3,11.3,4,14.6c-2.1-0.2-3.7-0.4-4.2-0.4
		C41.6,181.8,40.5,179.9,39.3,177.7z M45.6,160.9c-0.4,0.7-1.5,2.7-2.8,5.1c-0.3,0.1-0.5,0.4-0.4,0.8c-1.6,3.1-3.3,6.6-4.1,8.8
		c-0.8-5.2,3.1-14.7,4-16.9C43.8,158.9,44.8,159.8,45.6,160.9z M37.3,161.3c0.8-1.3,2-2.1,3.4-2.4c-1,2.5-3.2,8.3-3.8,13.2
		C35.6,167.9,35.7,163.9,37.3,161.3z M49.1,189.5c-1.5-0.1-3.3-1.6-5.3-4.5c3,0.3,10,1,14.5,1.7C53.8,188.4,50.2,189.5,49.1,189.5
		C49.1,189.5,49.1,189.5,49.1,189.5z M83.9,173.1c-0.8,0.8-1.8,1.7-3,2.6c-0.1-0.1-0.2-0.2-0.3-0.3c-0.9-0.5-1.3-3.2-1.2-5.2
		c1,0.8,2.1,1.6,3.4,2.3c0.4,0.2,0.8,0.4,1.2,0.6C84,173,83.9,173,83.9,173.1z M83.5,171.1c-0.4-0.2-0.8-0.4-1.1-0.6
		c2.6-0.8,5.1-1.7,7.5-2.7c1.5-0.1,20.2-1.1,34.7-12.9c0,0,0,0,0.1-0.1c-0.3,1.2-0.6,2.4-1,3.5c-2.1,5.7-7.7,10.9-15.1,13.7
		C100,175.3,90.9,175,83.5,171.1z M106,174.4c0.1,0.2,0.4,0.4,0.7,0.4c0,0,0.2,0,0.5,0c1.7,0,7-0.1,12.4-1.6
		c-2.3,2.5-8.1,7.9-12.5,11.3c-1.2-3.2-2.4-6.6-3.4-9.5C104.4,174.8,105.2,174.7,106,174.4z M125.6,180.3c-0.1,0.1-0.2,0.1-0.2,0.2
		c-5,7-16.5,8.1-16.7,8.2c0,0-0.1,0-0.1,0c-0.3-0.9-0.7-1.8-1-2.7c4.1-3.2,13.7-11.7,14.4-13.6c0.8-0.3,1.7-0.7,2.5-1.1
		C124.8,174.2,125.2,177.2,125.6,180.3z M109.1,190.2c1.8-0.2,11.5-1.6,16.8-7.8c0.1,0.8,0.2,1.6,0.3,2.4c-0.2,0.3-5,6.1-15.2,10.3
		C110.6,194.2,110,192.4,109.1,190.2z M127.2,194.8c-0.1,0-0.2,0-0.3,0.1c-6.9,4-13.6,3.1-16.1,2.6c0.3-0.3,0.5-0.6,0.6-0.9
		c8.3-3.4,13.1-7.8,15-9.8C126.7,189.7,127,192.5,127.2,194.8z M106.4,211.4c-1.3-0.5-2.2-1.5-2.7-2.9c-0.9-2.1,0.4-4.2,2-6.1
		c0.7,2.1,2.9,6.6,9.3,8.2C112,211.6,108.7,212.3,106.4,211.4z M118.5,209.1c-0.5,0.2-0.9,0.4-1.4,0.6c-0.1-0.2-0.3-0.4-0.5-0.4
		c-8.1-1.4-9.5-7.3-9.7-8.3c0.3-0.3,0.7-0.6,1-0.9c1,0.9,6.7,5.8,14.8,5.8c0.5,0,0.9,0,1.4-0.1C122.8,207,121,208,118.5,209.1z
		 M127.4,200.4c-0.3,1.5-0.8,2.8-1.8,4c-0.1-0.1-0.3-0.1-0.5-0.1c-8.4,1.1-14.8-4.1-16.1-5.1c0.2-0.2,0.4-0.3,0.5-0.5
		c0.7,0.2,2.9,0.8,6,0.8c3.3,0,7.5-0.7,11.8-3.1C127.5,198.4,127.5,199.8,127.4,200.4z M124.2,169.8c-4.9,2.6-11.4,3.3-14.9,3.5
		c6-2.4,10.9-6.2,13.8-10.6C123.4,164.4,123.8,166.9,124.2,169.8z M124.8,154c0-0.1-0.1-0.1-0.1-0.2c-0.3-0.3-0.7-0.4-1.1-0.1
		c-10.5,8.5-23.2,11.2-29.7,12.1c13.2-6.6,21.8-15.7,22-15.8c0.2-0.2,0.2-0.5,0.2-0.7c3.4-1.6,6.7-3.5,9.7-5.8
		C125.7,147.1,125.4,150.8,124.8,154z M125.4,132.7c-2,0.4-4.7,0.5-7.4,0.4c0,0,0,0,0,0c-0.3-0.3-0.7-0.3-1,0
		c-2.3-0.1-4.5-0.3-6.1-0.5c3.4-2.2,6.3-5.3,7.5-9.3c0-0.1,0-0.2,0-0.4c2-0.2,3.9-0.6,5.7-1C124.4,123.1,125,127.3,125.4,132.7z
		 M110,121.9C110,121.9,110,121.9,110,121.9c-4.9,0-10.4-0.4-17.3-1.2c-10-1.1-15.7-3.3-19-6.8c3.3-0.9,13.6-3.9,17.5-5
		c0.1,0,0.2-0.1,0.3-0.1c3.3,1.3,7.3,2.3,12.1,2.8c1.5,0.2,3,0.2,4.4,0.2c2.1,0,4-0.2,5.7-0.5c0.1,0.1,0.3,0.2,0.5,0.3
		c0.4,0,7.2,0.8,14.7,0.8c3.3,0,6.8-0.2,10-0.6C132.7,118.8,123.4,121.9,110,121.9z M148.2,91.1c-0.2,0-0.3,0.1-0.5,0.2
		c-8.6,7.2-15.3,8.4-17.9,8.5c1.7-3.3,2.2-5.9,2.2-6c0-0.2,0-0.4-0.2-0.6c5.8-2.7,13.7-6.9,18.5-11c-0.3,1.4-0.7,2.8-1,4.1
		C148.9,88,148.5,89.6,148.2,91.1z M154.3,62.4c-11.8-7.1-23.1-11.5-33.2-14.3c4.1-0.9,17.6-3.3,34.3-0.5
		C155.4,52.4,155,57.4,154.3,62.4z"/>
	<path fill="#FFFFFF" d="M88.6,73.9c-1.4,0-1.4,2.2,0,2.2C90,76,90,73.9,88.6,73.9z"/>
	<path fill="#FFFFFF" d="M113,73.2c0,0.1,0.1,0.2,0.1,0.4c0.1,0.6,1,0.8,1.4,0.4c0.3-0.3,0.4-0.6,0.4-1
		C115.1,71.5,112.6,71.7,113,73.2z"/>
	<g>
		<path fill="#69766A" d="M24.9,143.8c0.7,0.3,3.2-1.9,5.2-4.5c0.2-0.2,0.5-0.3,0.8-0.3c-0.4-0.9-1.2-1.6-2.1-1.5
			c-0.8,0.1-1.4,0.6-1.9,1.2c-1,1.2-1.7,2.6-2.8,3.7c-0.3,0.3-0.6,0.6-1,0.8c0.2,0.1,0.4,0.1,0.6,0.2
			C24.1,143.5,24.5,143.6,24.9,143.8z"/>
		<path fill="#69766A" d="M39.8,138c-1.5,0.5-3,1-4,2.3c-1.5,1.9-1,4.6-1.9,6.9c-0.1,0.3-0.3,0.6-0.5,0.9c0.5,0.2,1,0.2,1.5,0.1
			c0.6-0.1,1.1-0.5,1.5-1.1c0.6-1,1-1.9,1.3-2.8c0.4-1,0.7-1.8,1.3-2.2c0.8-0.5,4.8-1.8,6.6-2.3c-0.6-1-1-2.1-1.2-3.3
			c-0.3,0.1-0.6,0.2-0.9,0.3C42.3,137.1,41,137.5,39.8,138z"/>
	</g>
	<g>
		<path fill="#69766A" d="M21.9,109c-1.2,1-1.6,2.7-2.2,4.2c-0.5,1.3-1.1,2.5-2.1,3.5c0.7,0.2,1.5,0.1,2.3-0.1
			c0.4-0.1,0.7-0.1,1-0.2c0.2-0.3,0.6-1.2,0.8-2c0.8-2.2,1.8-4.8,4-4.9C25.4,108.1,23.1,108,21.9,109z"/>
		<path fill="#69766A" d="M28.7,113.1c-0.5,1.5-1,2.9-1.5,4.4c0,0,0,0,0,0c0,0,0.1,0.1,0.1,0.1c1.7,0.6,2.4-0.2,3.3-1.6
			c0.2-0.3,0.4-0.6,0.6-0.8c1-1.2,3-1.4,4-1.4c-0.3-1.2-0.3-2.4-0.2-3.5c-1.5,0.1-3,0.5-4.5,0.9c-0.4,0.1-0.7,0.2-1,0.4
			C29,112,28.8,112.5,28.7,113.1z"/>
	</g>
	<path fill="#69766A" d="M128.3,74.5C128.3,74.5,128.3,74.5,128.3,74.5c-1.6,6.5-6,10-12.1,10c-0.7,0-1.4,0-2.2-0.1
		c-0.8-0.1-1.5-0.3-2.2-0.5c-7.4,2.3-15.1,3.6-22.9,3.8c5.2,1.3,10.3,1.7,14.8,1.5c12.2-0.4,23-6.2,31.2-12.4
		C132.7,75.9,130.5,75.2,128.3,74.5z"/>
	<path fill="#C2B967" d="M119.1,79.8c-2.7,1.6-6.5,1.8-9-0.2c-1.7-1.4-2.6-3.7-3.2-5.9c-0.1-0.4-0.2-0.9-0.3-1.3
		c-0.2,1.8-0.1,4.9,1.6,7.2c1.3,1.8,3.3,2.9,6,3.2c8.8,1.1,11.7-5,12.7-8.7c0,0,0-0.1,0.1-0.1c-0.8-0.2-1.6-0.4-2.4-0.6
		C123.2,76,121.5,78.4,119.1,79.8z"/>
	<path fill="#C2B967" d="M96.7,71.9c-0.5,0.1-1.1,0.2-1.6,0.2c-0.3,1.8-0.7,3.6-1.4,5.2c-1.1,2.3-3.1,4.4-5.6,4.8
		c-2,0.4-4.1-0.3-5.7-1.5c-1-0.8-1.7-1.7-2.3-2.8c1,2.4,3.9,7,10,5.6C96.9,81.8,96.9,74.2,96.7,71.9z"/>
	<path fill="#D6D1A2" d="M122,21.7c-0.7-1.1-2.3-0.6-3.2-0.2c-1.6,0.7-3.1,1.6-4.7,2.4c-0.5,0.3-0.2,1,0.3,1
		c1.3,0.1,2.6-0.6,3.8-1.2c0.8-0.4,1.6-0.7,2.5-0.9c0.6-0.2,1-0.2,1.3-0.7C122,22,122,21.9,122,21.7z"/>
	<path fill="#D6D1A2" d="M126.8,21.2c-0.8-0.4-1.5,0-2.2,0.3c-1.1,0.5-2,1.2-3.1,1.7c-0.4,0.2-0.1,0.8,0.3,0.7
		c0.8-0.3,1.6-0.7,2.4-1.1c0.8-0.4,1.9-0.5,2.6-1C126.9,21.6,127,21.3,126.8,21.2z"/>
	<path fill="#D6D1A2" d="M131.9,20.1c-1,0-1.9,0.9-3,1.1c-0.6,0.1-0.4,1,0.1,1c1.1,0,2.5-0.3,3.3-1
		C132.8,20.8,132.4,20.1,131.9,20.1z"/>
	<path fill="#D6D1A2" d="M79.9,28.4c-0.6-0.8-1.6-0.6-2.5-0.3c-1.1,0.3-2.2,0.7-3.3,1.1c-0.5,0.2-0.5,0.9,0,1.1
		c0.9,0.3,1.9,0.1,2.8-0.2c0.9-0.2,2.2-0.4,2.9-1C80.1,28.8,80.1,28.6,79.9,28.4z"/>
	<path fill="#D6D1A2" d="M81.4,28c-0.1,0-0.2,0.1-0.3,0.1c-0.6,0.2-0.9,0.9-0.4,1.4c0.5,0.5,1.2,0.2,1.4-0.4c0-0.1,0.1-0.2,0.1-0.3
		C82.5,28.4,81.9,27.8,81.4,28z"/>
	<path fill="#D6D1A2" d="M142.6,47.8c-1.2-0.8-3-0.4-4.4-0.2c-1.5,0.2-3.2,0.5-4.3,1.6c-0.1,0.1-0.1,0.4,0.1,0.5
		c1.5,0.2,2.9-0.3,4.4-0.4c1.3-0.1,3,0.1,4.2-0.7C142.9,48.4,142.9,48,142.6,47.8z"/>
	<path fill="#D6D1A2" d="M146.9,48.9c-0.8-0.7-2-0.4-3-0.2c-1,0.2-0.6,1.6,0.4,1.5c0.9-0.2,1.9-0.1,2.6-0.7
		C147,49.3,147,49.1,146.9,48.9z"/>
	<path fill="#D6D1A2" d="M81,64.3c-1.9-0.5-4,0.9-5.6,1.8c-2.3,1.3-4.6,3-6.3,5c-0.3,0.4,0.1,1.1,0.6,0.7c2-1.3,3.8-2.8,5.9-3.9
		c1.8-1,4.3-1.4,5.6-2.9C81.4,64.8,81.3,64.4,81,64.3z"/>
	<path fill="#D6D1A2" d="M85.6,64c-0.6-1-2.2,0-2.9,0.4c-1.5,0.7-2.8,1.6-4,2.6c-0.5,0.4,0.2,1.2,0.7,0.9c1.3-0.8,2.6-1.7,4-2.3
		C83.8,65.5,86.1,64.9,85.6,64z"/>
	<path fill="#D6D1A2" d="M90.1,63.1c-0.7-0.3-1.3,0.2-1.9,0.5c-0.7,0.4-1.4,0.7-2,1.2c-0.5,0.4,0.2,1.3,0.7,0.9
		c0.6-0.4,1.3-0.7,2-0.9c0.6-0.2,1.4-0.6,1.4-1.3C90.3,63.3,90.2,63.1,90.1,63.1z"/>
	<path fill="#D6D1A2" d="M138,62.9c-0.9,0.2-1.7,0.7-2.6,0.9c-0.8,0.2-0.5,1.3,0.2,1.3c0.9,0.1,1.6-0.2,2.4-0.5
		c0.6-0.2,1.5-0.4,1.5-1.2C139.5,62.7,138.4,62.8,138,62.9z"/>
	<path fill="#D6D1A2" d="M140.4,64.2c-0.2-0.3-0.5-0.4-0.8-0.3c-0.3,0.1-0.4,0.5-0.7,0.6c-0.4,0.2-0.6,0.5-0.5,0.9
		c0.1,0.4,0.5,0.7,0.9,0.5C139.9,65.7,140.9,65,140.4,64.2z"/>
	<path fill="#D6D1A2" d="M71.7,93.2c-0.6,0.1-1.3,0.6-1.5,1.1c-0.2,0.3,0,0.9,0.4,0.9c0.7,0.1,1.4-0.1,2-0.6
		C73.2,94,72.5,93.1,71.7,93.2z"/>
	<path fill="#D6D1A2" d="M72.1,95.9c-0.2-0.3-0.5-0.3-0.8-0.1c-0.1,0.1-0.2,0.3-0.3,0.5c-0.5,0.6,0.3,1.3,0.8,0.8
		C72.1,96.8,72.4,96.3,72.1,95.9z"/>
	<path fill="#D6D1A2" d="M94.4,117.9c-1.4-1.3-3.3-0.9-5.1-0.9c-2.1,0-3.9-1.5-6.1-1.1c-0.3,0.1-0.4,0.6-0.1,0.7
		c1.7,0.8,3.4,1.7,5.3,2.1c1.7,0.4,3.9,0.3,5.7,0.1C94.5,118.6,94.8,118.2,94.4,117.9z"/>
	<path fill="#D6D1A2" d="M96.7,118c-0.5,0.1-0.5,0.9,0,1c0.7,0.2,3.8,0.9,3.8-0.5C100.5,117,97.5,117.7,96.7,118z"/>
	<path fill="#D6D1A2" d="M54.4,106.9c-0.4,0.1-0.7,0.4-1.1,0.6c-0.4,0.2-0.8,0.4-1.1,0.8c-0.3,0.4-0.1,1,0.4,1
		c0.5,0,0.9-0.2,1.3-0.4c0.5-0.2,1-0.4,1.3-0.9C55.7,107.4,55,106.8,54.4,106.9z"/>
	<path fill="#D6D1A2" d="M54,110.4c-0.6-0.2-1.1,0.5-1.5,0.8c-0.4,0.2-0.1,0.8,0.3,0.7c0.5-0.1,1.6-0.4,1.5-1.1
		C54.2,110.5,54.1,110.4,54,110.4z"/>
	<path fill="#D6D1A2" d="M59.7,128.3c-0.7,0-1.3,0.4-1.9,0.9c-0.7,0.7,0.3,1.7,1.1,1.1c0.3-0.3,0.6-0.4,1-0.6
		c0.3-0.1,0.5-0.3,0.5-0.7C60.4,128.6,60.1,128.2,59.7,128.3z"/>
	<path fill="#D6D1A2" d="M62.3,128.4c-0.1-0.3-0.4-0.3-0.7-0.2c-0.4,0.2-0.5,0.6-0.8,0.9c-0.6,0.5,0,1.5,0.6,1.1
		C62,129.9,62.7,129.2,62.3,128.4z"/>
	<path fill="#D6D1A2" d="M78.9,141.3c-0.3-0.1-0.6-0.1-0.9,0c-0.3,0.1-0.6,0.2-0.8,0.4c-0.5,0.3-1,0.5-1.3,1c-0.2,0.3,0,0.8,0.3,0.8
		c0.5,0.1,1-0.1,1.4-0.2c0.3-0.1,0.6-0.2,0.8-0.3c0.3-0.1,0.4-0.3,0.7-0.5C79.5,142.1,79.3,141.5,78.9,141.3z"/>
	<path fill="#D6D1A2" d="M80.9,142.5c-0.6-0.8-1.7,0.1-2.1,0.6c-0.3,0.4,0.1,0.9,0.5,0.7C79.7,143.6,81.4,143.2,80.9,142.5z"/>
	<path fill="#D6D1A2" d="M81.8,158.5c-1.3-1.1-3.1,1-4.2,1.5c-0.5,0.3-0.2,1.1,0.4,0.9c0.7-0.2,1.3-0.5,1.9-0.9
		c0.6-0.4,1.4-0.5,1.9-1.1C81.9,158.8,82,158.6,81.8,158.5z"/>
	<path fill="#D6D1A2" d="M84.6,159c-0.7-0.6-1.6,0.1-2.1,0.6c-0.5,0.5,0.3,1.2,0.8,0.8c0.4-0.4,1-0.5,1.4-1
		C84.7,159.2,84.7,159.1,84.6,159z"/>
	<path fill="#D6D1A2" d="M103.3,170.8c-1.2-0.6-2.7,0.1-3.9,0.2c-1.7,0.1-3.4,0-5-0.2c-1.1-0.1-1.1,1.6,0,1.8
		c1.9,0.2,3.7,0.3,5.6,0.2c1.2-0.1,3-0.1,3.5-1.4C103.6,171.2,103.6,170.9,103.3,170.8z"/>
	<path fill="#D6D1A2" d="M108.4,169.6c-0.5-0.1-0.8-0.1-1.3,0.1c-0.5,0.2-1,0.5-1.5,0.7c-0.5,0.2-0.5,1.1,0.1,1.1
		c0.5,0,1-0.1,1.5-0.3c0.6-0.2,1-0.5,1.3-1.1C108.7,169.9,108.7,169.7,108.4,169.6z"/>
	<path fill="#D6D1A2" d="M109.2,178.2c-0.4-0.1-0.6-0.1-1,0.1c-0.4,0.2-0.8,0.4-1.1,0.7c-0.5,0.3-0.3,1.2,0.3,1.1
		c0.9,0,2.1-0.5,2-1.6C109.4,178.3,109.3,178.2,109.2,178.2z"/>
	<path fill="#D6D1A2" d="M105.9,206.1c0-0.2-0.3-0.2-0.4-0.2c-0.5,0.2-0.7,0.8-0.9,1.3c-0.2,0.7,0.9,1,1.1,0.3
		C105.8,207.1,106,206.6,105.9,206.1z"/>
	<path fill="#D6D1A2" d="M43.3,161.4c-0.5-0.1-1.2,0.3-1.6,0.6c-0.3,0.2-0.3,0.6,0,0.8c0.7,0.4,2,0.2,2.2-0.7
		C43.9,161.8,43.6,161.5,43.3,161.4z"/>
	<path fill="#D6D1A2" d="M48.4,170.9c-0.2-1-0.9-1.7-1.7-2.3c-0.6-0.5-1.2,0.2-0.8,0.8c0.5,0.6,0.9,1.3,1.3,2
		C47.6,172,48.6,171.6,48.4,170.9z"/>
	<path fill="#A6AFA1" d="M36.4,127.8c-0.2-0.5-0.3-1.2-0.7-1.6c-0.3-0.3-0.9-0.2-1,0.3c-0.2,0.6,0.1,1.4,0.3,2
		c0.2,0.7,0.8,1.4,1.6,1.3c0.1,0,0.2-0.1,0.3-0.3C36.9,128.9,36.6,128.3,36.4,127.8z"/>
	<path fill="#A6AFA1" d="M27,100c-0.2-0.6-0.4-1.1-0.7-1.7c-0.1-0.2-0.5-0.1-0.4,0.2c0.1,0.6,0.3,1.2,0.4,1.7c0.1,0.5,0,1.1,0.4,1.4
		c0.1,0.1,0.3,0.1,0.4-0.1C27.4,101.1,27.1,100.5,27,100z"/>
	<path fill="#A6AFA1" d="M26.8,103.5c-0.3-0.3-0.7,0.1-0.5,0.4c0.2,0.4,0.5,0.9,1.1,0.8c0.1,0,0.2-0.1,0.2-0.2
		C27.5,104,27.1,103.8,26.8,103.5z"/>
	<path fill="#69766A" d="M100.5,81c-0.1-0.4-0.6-0.6-0.9-0.4c-0.5,0.4-0.8,1-1,1.6c-0.4,1.1,1.4,1.6,1.7,0.5
		C100.4,82.3,100.6,81.6,100.5,81z"/>
	<path fill="#69766A" d="M104.5,83c-0.2-0.5-0.4-1-0.7-1.5c-0.3-0.5-1.1-0.5-1.3,0c-0.4,0.8-0.2,1.8,0.4,2.5
		C103.5,84.7,104.8,84,104.5,83z"/>
	<path fill="#69766A" d="M40.1,135.5c-1.6-0.1-2.9,1-4.4,1.6c-0.4,0.2-0.3,0.9,0.2,0.7c1.5-0.4,3.1-0.9,4.3-2
		C40.4,135.7,40.3,135.5,40.1,135.5z"/>
	<path fill="#69766A" d="M42.5,134.4c-0.5,0.1-0.8,0.3-1.2,0.5c-0.6,0.4-0.2,1.3,0.5,1.1c0.4-0.1,0.9-0.2,1.2-0.4
		C43.7,135.2,43.2,134.2,42.5,134.4z"/>
	<path fill="#69766A" d="M32.9,109.5c-0.3-0.5-0.8-0.7-1.3-0.7c-0.3,0-0.7,0-1,0c-0.3,0-0.7,0.2-1,0.1c-0.2,0-0.3,0.3-0.1,0.4
		c0.2,0.1,0.3,0.3,0.6,0.4c0.3,0.1,0.6,0.2,1,0.3c0.6,0.1,1.2,0.2,1.8-0.1C33,109.9,33,109.7,32.9,109.5z"/>
	<path fill="#EEEBD6" d="M97.9,13.9c-1.7-1.5-4.8,0.1-6.6,0.9c-2.7,1.2-6.2,3.1-7.9,5.6c-0.3,0.4,0.2,1,0.6,0.8c2.4-1,4.4-2.8,6.8-4
		c1.4-0.7,2.8-1.2,4.3-1.7c1.1-0.3,2-0.3,2.9-1.1C98,14.3,98,14.1,97.9,13.9z"/>
	<path fill="#EEEBD6" d="M102.9,12.5c-0.9-0.1-1.9,0-2.7,0.3c-0.7,0.2-0.7,1.2,0,1.4c0.9,0.3,2,0.2,2.9-0.2
		C103.6,13.6,103.6,12.6,102.9,12.5z"/>
	<path fill="#EEEBD6" d="M113.5,36.7c-1-0.3-2,0.6-2.8,1.1c-1.3,0.7-2.7,1.4-4,2c-0.5,0.2-0.1,1,0.4,0.8c1.4-0.3,2.7-0.7,4-1.3
		c0.9-0.4,2.6-0.9,2.8-2C113.8,37.1,113.7,36.8,113.5,36.7z"/>
	<path fill="#EEEBD6" d="M118.4,36.6c-0.9-0.2-2,0.2-2.8,0.8c-0.4,0.3-0.7,0.5-0.7,1c0,0.3,0.1,0.7,0.5,0.7c0.5,0,1-0.2,1.5-0.4
		c0.8-0.2,1.5-0.4,2-1.1C119,37.2,118.8,36.8,118.4,36.6z"/>
	<path fill="#EEEBD6" d="M75.8,49.3c-1-0.1-1.8,0.5-2.6,1c-1,0.6-1.9,1.2-2.9,1.7c-0.5,0.2-0.3,1.1,0.3,1c1.1-0.1,1.9-0.4,2.9-0.9
		c0.9-0.5,2-0.9,2.8-1.6C76.9,50.1,76.4,49.3,75.8,49.3z"/>
	<path fill="#EEEBD6" d="M81.4,48.6c-0.3-1-2.6,0-3.2,0.1c-0.9,0.2-0.5,1.6,0.4,1.4c0.6-0.2,1.3-0.3,1.9-0.6
		C80.8,49.4,81.6,49.1,81.4,48.6z"/>
	<path fill="#EEEBD6" d="M86.7,49.1c-0.1-0.4-0.5-0.7-0.9-0.7c-0.6,0-1,0.2-1.5,0.6c-0.4,0.3-0.3,1.1,0.3,1c0.5-0.1,0.9,0,1.4-0.1
		C86.3,49.9,86.8,49.5,86.7,49.1z"/>
	<path fill="#EEEBD6" d="M82.2,89.9c-1.5-1.3-3.3-2.1-5-3.2c-2-1.3-3.6-3-5.5-4.4c-0.1-0.1-0.3,0.1-0.3,0.2c0.6,2.2,2.4,3.8,4.1,5.2
		c1.8,1.5,3.9,2.9,6.3,2.9C82.2,90.6,82.4,90.1,82.2,89.9z"/>
	<path fill="#EEEBD6" d="M87.7,92.3c0,0-0.3-0.5-0.2-0.3c-0.1-0.3-0.4-0.5-0.7-0.6c-0.5-0.2-1.1-0.3-1.7-0.3c-0.6,0-0.9,0.9-0.3,1.2
		c0.4,0.2,0.9,0.4,1.3,0.6c0.2,0.1,0.5,0.1,0.8,0.1c0.2-0.1,0.3,0,0.6-0.1C87.7,92.8,87.8,92.5,87.7,92.3z"/>
	<path fill="#EEEBD6" d="M126.2,87.8c-1-0.4-2.1,0.2-3,0.7c-1.2,0.6-2.4,1.3-3.4,2.2c-0.4,0.3,0,0.9,0.5,0.8
		c1.3-0.2,2.5-0.7,3.7-1.2c1-0.4,2.1-0.8,2.6-1.9C126.6,88.1,126.4,87.8,126.2,87.8z"/>
	<path fill="#EEEBD6" d="M131.6,84.3c-1.3-0.1-2.5,0.9-3.4,1.8c-0.8,0.8,0.4,2,1.2,1.2c0.9-0.8,2-1.3,2.5-2.5
		C132.1,84.6,131.8,84.3,131.6,84.3z"/>
	<path fill="#EEEBD6" d="M135.7,102.2c-1-1.5-3.3,0.3-4.2,1.1c-0.7,0.6,0.1,1.6,0.8,1.4c0.8-0.2,1.5-0.6,2.3-0.9
		C135,103.6,136.1,102.9,135.7,102.2z"/>
	<path fill="#EEEBD6" d="M137.4,101.1c-0.1,0-0.2,0.1-0.3,0.1c-0.7,0.2-1,1.2-0.5,1.7c0.6,0.6,1.5,0.3,1.7-0.5
		c0-0.1,0.1-0.2,0.1-0.3C138.6,101.6,138,100.9,137.4,101.1z"/>
	<path fill="#EEEBD6" d="M53.6,131.8c-0.2-0.5-0.4-1-0.3-1.6c0.1-0.7-1.1-0.8-1.2-0.2c-0.2,0.8-0.2,1.8,0.4,2.4
		C52.9,132.9,53.8,132.5,53.6,131.8z"/>
	<path fill="#EEEBD6" d="M45.6,106.4c-0.8,0.4-1.4,1.7-0.8,2.5c0.2,0.2,0.4,0.3,0.7,0.1c0.5-0.5,0.7-1.2,1-1.7
		C46.7,106.7,46.1,106.1,45.6,106.4z"/>
	<path fill="#EEEBD6" d="M61.1,108.2c0-0.5-0.7-0.7-1-0.3c-0.4,0.6-0.5,1.4-0.5,2.1c0.1,0.7,1.2,1,1.3,0.2
		C61.1,109.5,61.2,108.9,61.1,108.2z"/>
	<path fill="#EEEBD6" d="M71.4,115.8c-0.2-0.6-1.1-0.4-1,0.3c0.1,0.7,0.4,1.5,1.2,1.7c0.2,0,0.4-0.1,0.4-0.3
		C72,116.8,71.6,116.4,71.4,115.8z"/>
	<path fill="#EEEBD6" d="M69.9,126.9c-0.3-0.2-0.8-0.1-0.8,0.3c0,0.7-0.2,1.4-0.3,2.1c-0.1,0.8,1.1,1,1.4,0.4
		C70.8,128.8,70.8,127.5,69.9,126.9z"/>
	<path fill="#EEEBD6" d="M71.3,129.9c-0.2-0.5-1-0.2-1,0.3c0,0.4,0,0.8,0.1,1.2c0.2,0.7,1.3,0.6,1.3-0.2
		C71.7,130.8,71.5,130.4,71.3,129.9z"/>
	<path fill="#EEEBD6" d="M83,123.8c-0.2-0.6-1.1-0.6-1.3,0c-0.2,0.6-0.3,1.4,0.2,1.9c0.2,0.2,0.7,0.2,0.9,0
		C83.3,125.2,83.1,124.4,83,123.8z"/>
	<path fill="#EEEBD6" d="M86.3,125.4c-0.1-0.5-0.4-0.8-0.8-1.1c-0.8-0.6-1.6,0.8-0.8,1.4c0.1,0.1,0.2,0.1,0.2,0.2
		c0.1,0.3,0.2,0.4,0.4,0.6c0.2,0.1,0.4,0.1,0.6,0C86.3,126.2,86.4,125.8,86.3,125.4z"/>
	<path fill="#EEEBD6" d="M113.4,141.9c-1.1,0.1-2,0.5-2.9,1c-1.3,0.7-2.6,1.1-3.8,1.8c-0.5,0.3-0.3,1,0.3,1c1.2,0,2.4-0.5,3.5-1
		c1.3-0.6,2.5-1.1,3.3-2.4C113.8,142.2,113.6,141.8,113.4,141.9z"/>
	<path fill="#EEEBD6" d="M117.2,139.5c-0.7-0.3-1.5,0.5-2,0.8c-0.9,0.5-0.1,1.9,0.8,1.4c0.6-0.3,1.7-0.9,1.6-1.7
		C117.6,139.7,117.5,139.6,117.2,139.5z"/>
	<path fill="#EEEBD6" d="M107.5,137.7c-0.5,0.1-0.9,0.3-1.3,0.6c-0.4,0.3-0.9,0.4-1.4,0.4c-0.7,0-0.7,1.1,0,1.1c1.2,0,2.7-0.5,3-1.7
		C107.9,137.8,107.7,137.6,107.5,137.7z"/>
	<path fill="#EEEBD6" d="M115.4,154.5c-0.6-1.1-2.8,0.7-3.4,1.1c-0.8,0.5-0.1,1.8,0.7,1.3c0.6-0.4,1.2-0.8,1.9-1.1
		C115,155.5,115.7,155,115.4,154.5z"/>
	<path fill="#EEEBD6" d="M118.1,151.5c-0.5,0-0.9,0.4-1.1,0.9c-0.6,0.9,1,1.6,1.3,0.6c0.1-0.3,0.3-0.6,0.3-0.9
		C118.6,151.7,118.4,151.4,118.1,151.5z"/>
	<path fill="#EEEBD6" d="M120.5,168.8c-0.1-0.2-0.2-0.3-0.4-0.3c-0.5,0-0.9,0.4-1.3,0.6c-0.7,0.3-0.2,1.3,0.5,1.2
		C119.9,170.2,120.8,169.6,120.5,168.8z"/>
	<path fill="#EEEBD6" d="M121.4,176.9c-0.6-0.6-1.5,0.3-1.9,0.8c-0.5,0.5-0.9,1.3-1.2,1.9c-0.2,0.6,0.7,0.9,1,0.4
		c0.3-0.7,0.9-1.1,1.4-1.6C121.1,178.1,122,177.4,121.4,176.9z"/>
	<path fill="#EEEBD6" d="M114.9,181.7c-0.6,0.2-1.2,0.5-1.5,1.1c-0.2,0.4,0,1.1,0.6,1.1c0,0,0,0,0,0c0.2,0,0.4,0,0.5-0.1
		c0.4-0.1,0.7-0.3,1-0.6C116.3,182.6,115.8,181.4,114.9,181.7z"/>
	<path fill="#EEEBD6" d="M121.9,192.4c-0.9-0.3-1.7,0.3-2.2,1.1c-0.3,0.5,0.4,1,0.8,0.6c0.4-0.4,0.9-0.4,1.4-0.5
		C122.5,193.4,122.4,192.5,121.9,192.4z"/>
	<path fill="#EEEBD6" d="M66.7,173.1c-0.2-0.2-0.4-0.4-0.6-0.6c-0.3-0.2-0.5-0.3-0.8-0.4c-0.4-0.2-0.8,0.3-0.5,0.6
		c0.4,0.3,0.7,0.7,1,1.1c0.3,0.4,0.6,0.9,1.2,1c0.2,0,0.5-0.1,0.5-0.4C67.5,173.9,67.1,173.5,66.7,173.1z"/>
	<path fill="#EEEBD6" d="M56.5,176.8c-0.5-0.5-1.2,0.3-0.7,0.7c0.4,0.4,0.7,0.7,1.2,1c0.2,0.1,0.4,0.1,0.5,0
		C58.3,178,56.8,177.2,56.5,176.8z"/>
	<path fill="#EEEBD6" d="M42.9,173.5c-0.4-0.3-0.9,0.2-0.8,0.6c0.1,0.3,0.1,0.6,0.1,0.9c0,0.8,1.2,1,1.4,0.2
		C43.7,174.4,43.5,173.9,42.9,173.5z"/>
	<path fill="#EEEBD6" d="M38,162.1c-0.1-0.4-0.8-0.4-0.8,0c-0.1,0.5-0.2,1,0.2,1.3c0.1,0.1,0.3,0.1,0.5,0
		C38.2,163.1,38.1,162.6,38,162.1z"/>
	<path fill="#EEEBD6" d="M75.5,167.1c-0.4,0.4-0.6,1-0.1,1.4c0.2,0.2,0.4,0.1,0.6-0.1c0.1-0.2,0.2-0.4,0.3-0.6
		C76.7,167.3,75.9,166.6,75.5,167.1z"/>
	<path fill="#EEEBD6" d="M112.1,203.3c-0.2-0.9-0.8-1.4-1.7-1.5c-0.7-0.1-1.3,0.5-1.7,1c-0.5,0.6,0.4,1.3,1,1
		c0.1-0.1,0.2-0.1,0.3-0.1c0.2,0,0.1,0,0.1,0c0.2,0.1,0.4,0.3,0.6,0.5C111.3,204.8,112.3,204.2,112.1,203.3z"/>
</g>
<g>
</g>
<g>
</g>
<g>
</g>
<g>
</g>
<g>
</g>
<g>
</g>
<g>
</g>
<g>
</g>
<g>
</g>
<g>
</g>
<g>
</g>
<g>
</g>
<g>
</g>
<g>
</g>
<g>
</g>
</svg>
